<?xml version="1.0" encoding="utf-8"?>
<!-- Svg Vector Icons : http://www.onlinewebfonts.com/icon -->
<!DOCTYPE svg PUBLIC "-//W3C//DTD SVG 1.1//EN" "http://www.w3.org/Graphics/SVG/1.1/DTD/svg11.dtd">
<svg version="1.1" xmlns="http://www.w3.org/2000/svg" xmlns:xlink="http://www.w3.org/1999/xlink" x="0px" y="0px" viewBox="0 0 1000 1000" enable-background="new 0 0 1000 1000" xml:space="preserve">
<metadata> Svg Vector Icons : http://www.onlinewebfonts.com/icon </metadata>
<g><path d="M500,10C229.4,10,10,229.4,10,500c0,270.6,219.4,490,490,490c270.6,0,490-219.4,490-490C990,229.4,770.6,10,500,10z M651.3,947.5c-24.3,4.7-32.8-10.1-32.8-22.8c0-15.6,0.6-66.8,0.6-130.2c0-44.3-15.3-73.3-32.4-88c106.4-11.7,218.1-51.9,218.1-234.2c0-51.9-18.5-94.2-49.1-127.4c4.9-12,21.3-60.2-4.8-125.6c0,0-40-12.8-131.3,48.7c-38.1-10.6-79-15.8-119.6-16c-40.6,0.2-81.5,5.4-119.6,16c-91.3-61.5-131.4-48.7-131.4-48.7c-26,65.4-9.6,113.7-4.7,125.6c-30.6,33.2-49.2,75.6-49.2,127.4c0,181.9,111.5,222.7,217.6,234.6c-13.6,11.9-26,32.8-30.3,63.5c-27.2,12.1-96.4,33.1-139-39.5c0,0-25.2-45.5-73.2-48.9c0,0-46.7-0.6-3.3,28.9c0,0,31.3,14.6,53,69.4c0,0,28,92.4,160.9,63.7c0.2,39.7,0.6,69.5,0.6,80.8c0,12.6-8.7,27.2-32.6,22.8C159.1,884.8,22.3,706.8,22.3,497C22.3,234.8,236.1,22.3,500,22.3c263.9,0,477.8,212.6,477.8,474.8C977.7,706.8,841,884.6,651.3,947.5z"/></g>
</svg>