<?xml version="1.0" encoding="utf-8"?>
<!-- Svg Vector Icons : http://www.onlinewebfonts.com/icon -->
<!DOCTYPE svg PUBLIC "-//W3C//DTD SVG 1.1//EN" "http://www.w3.org/Graphics/SVG/1.1/DTD/svg11.dtd">
<svg version="1.1" xmlns="http://www.w3.org/2000/svg" xmlns:xlink="http://www.w3.org/1999/xlink" x="0px" y="0px" viewBox="0 0 1000 1000" enable-background="new 0 0 1000 1000" xml:space="preserve">
<metadata> Svg Vector Icons : http://www.onlinewebfonts.com/icon </metadata>
<g><path d="M500,68.5c244.2,0,442.3,198.1,442.3,442.3c0,195.3-126.7,361.1-302.4,419.9c-2.7,0.5-5.2,0.7-7.5,0.7c-16.6,0-22.4-11.9-22.4-22c0-14.4,0-62.2,0-121.5c0-41.5-13.8-68-30-81.8c98.5-10.9,202.2-48.4,202.2-218.3c0-48.4-17.3-88.1-45.5-118.6c4.6-11.5,19.6-56.4-4.6-117.5c-3.4-1.1-7.2-1.5-11.3-1.5c-40.4,0-110.3,47-110.3,47c-35.1-9.8-73.1-15-110.6-15s-75.5,5.2-110.6,15c0,0-69.8-47-110.7-47c-4.1,0-8,0.5-11.4,1.5c-23.6,61.1-8.6,106-4,117.5c-28.2,30.5-45.5,70.3-45.5,118.6c0,169.3,103.1,207.4,201.6,218.3c-12.7,11.5-24.2,30.5-28.2,59.3c-11.2,5.1-30,11.7-50.9,11.7c-26.4,0-56-10.7-77.6-48.6c-24.2-42-68-45.5-68-45.5c-0.4,0-0.9,0-1.3,0c-41.1,0-1.6,27.1-1.6,27.1c28.8,13.2,49,64.5,49,64.5c15.5,47.2,65.9,56.7,103.8,56.7c25.5,0,45.4-4.3,45.4-4.3c0,36.9,0.6,72,0.6,82.4c0,10.1-6.2,22-23,22c-2.3,0-4.8-0.2-7.5-0.7C184.4,872,57.7,706.1,57.7,510.9C57.7,266.7,255.8,68.5,500,68.5 M500,20.9c-66.1,0-130.3,13-190.7,38.5c-58.3,24.7-110.7,60-155.7,105s-80.3,97.4-105,155.7C23,380.6,10,444.8,10,510.9c0,52.9,8.4,105,25,154.8c16,48.2,39.4,93.4,69.5,134.5c29.7,40.6,65.4,76.3,105.9,106.1c41.1,30.2,86.3,53.6,134.5,69.7l3.3,1.1l3.4,0.6c5.4,1,10.8,1.5,16,1.5c21.5,0,40.7-8.4,53.9-23.8c10.8-12.5,16.7-28.8,16.7-45.9c0-3.8-0.1-10.3-0.2-19.2c-0.2-16.6-0.4-39.3-0.4-63.1V777l0.7-4.9c2.6-18.7,9.3-27.3,13.1-30.7l46.9-42.6l50.8,43.5c2.2,1.9,13.3,13.1,13.3,45.6v121.5c0,39.7,30.1,69.7,70.1,69.7c5.2,0,10.5-0.5,15.9-1.5l3.4-0.6l3.3-1.1c48.1-16.1,93.4-39.6,134.4-69.7c40.6-29.8,76.2-65.5,105.9-106.1c30.1-41.1,53.5-86.4,69.5-134.5c16.6-49.8,25-101.9,25-154.8c0-66.1-13-130.3-38.5-190.7c-24.7-58.3-60-110.7-105-155.7c-45-45-97.4-80.3-155.7-105C630.3,33.8,566.1,20.9,500,20.9L500,20.9z M499.7,667.1l-75.1-8.3c-52-5.8-87.7-18.1-112.3-38.9c-31.5-26.5-46.9-69.7-46.9-132.1c0-33.7,11.1-62.7,32.8-86.3l20.4-22.1l-11.2-27.9c-1.7-4.2-7.6-21.3-4.7-47c6.6,2.6,14.5,6.2,23.8,11c20.1,10.4,36.1,21.1,36.3,21.2l18.2,12.3l21.1-5.9c31.1-8.7,64.9-13.2,97.8-13.2c32.9,0,66.7,4.6,97.8,13.2L619,349l18.2-12.3c0.1-0.1,16.2-10.8,36.2-21.2c9.4-4.9,17.2-8.4,23.6-11c3.1,25.7-2.8,42.8-4.5,47l-11.2,27.9l20.4,22.1c21.8,23.6,32.8,52.6,32.8,86.3c0,62.5-15.4,105.7-47.1,132.2c-24.7,20.6-60.5,32.9-112.7,38.7L499.7,667.1L499.7,667.1z"/></g>
</svg>